<svg xmlns="http://www.w3.org/2000/svg" xmlns:xlink="http://www.w3.org/1999/xlink" width="167" height="38" viewBox="0 0 167 38">
  <defs>
    <rect id="rect-1" width="167" height="38" x="0" y="0"/>
    <mask id="mask-2" maskContentUnits="userSpaceOnUse" maskUnits="userSpaceOnUse">
      <rect width="167" height="38" x="0" y="0" fill="black"/>
      <use fill="white" xlink:href="#rect-1"/>
    </mask>
  </defs>
  <g>
    <use fill="none" xlink:href="#rect-1"/>
    <g mask="url(#mask-2)">
      <path fill="rgb(255,255,255)" fill-rule="evenodd" d="M22.1654663 0h-7.69213866l-1.11334229 5.83068848h7.69213867L22.16546631 0zM5.97149659 31.76719666c-1.01208496 0-1.92303467-.30158997-2.93511963-.90476227L0 35.98941803c.91088867.70370483 1.82183838 1.20635223 2.93518066 1.5079422C4.04846191 37.79894257 5.2630005 38 6.5787964 38c1.51818847 0 2.83392334-.20105743 3.94726562-.70370483 1.11334229-.50263977 2.02423096-1.2063446 2.83392334-2.11110688.80969238-.90476226 1.41699219-2.01058197 2.12548828-3.11640167.50604248-1.30688095.91088867-2.7142868 1.21453858-4.3227539l3.744812-19h-7.18603515l-3.84606933 19.5026474c-.3036499 1.2063446-.7084961 2.11110687-1.21453858 2.71428298-.6072998.50264359-1.31573486.80423356-2.22668457.80423356z"/>
      <path fill="rgb(255,255,255)" fill-rule="evenodd" d="M36.94238281 8.645504c-1.21453857-.5026474-2.42907715-.70370484-3.64361572-.70370484-1.72064209 0-3.34002686.30158615-4.756958.80423355-1.51818848.70370484-2.83398438 1.6084633-3.94726563 2.7142868-1.11334229 1.10581971-2.024292 2.51322556-2.73272705 4.02116395-.7084961 1.60846329-1.012146 3.3174591-1.012146 5.12698364 0 1.40740586.20245361 2.7142868.7084961 3.8201065.50604247 1.10581971 1.21453857 2.11110688 2.02423095 2.91534425.80969238.80422973 1.82183838 1.40740585 2.93518067 1.91004944 1.11328124.5026474 2.32781982.70370483 3.64361572.70370483 1.72058105 0 3.44122314-.30158997 4.95941162-1.00529099 1.51812744-.70370102 2.83392334-1.60846328 3.94726562-2.71428299 1.11334229-1.10582351 2.02423096-2.51322937 2.63146973-4.02116775.6072998-1.50793457.9109497-3.21693039.9109497-5.02645493 0-1.30687713-.2024536-2.61375427-.70849609-3.71957397-.50604248-1.10582352-1.21453857-2.1111145-2.02423095-2.91534424-.80969239-.80423355-1.82183838-1.40740967-2.93518067-1.91005325zm-4.1496582 14.57671737c-.50604248.30158616-1.11328125.40211487-1.72058106.40211487-1.11334228 0-2.02423095-.30158615-2.63153076-1.1058197-.60723877-.80422974-.91088867-1.708992-.91088867-2.8148117 0-.80423356.10119629-1.5079384.4048462-2.21164323.2024536-.6031723.6072998-1.20634841 1.01214599-1.708992.40484619-.5026474.91088867-.90476227 1.51818848-1.20635223.50604248-.30158615 1.11328125-.40211487 1.72058105-.40211487 1.21453857 0 2.02423096.40211487 2.63153076 1.1058197.60723877.80423355.91088867 1.70899582.91088867 2.81481552 0 .80423355-.10119629 1.50793457-.40484619 2.2116394-.20245361.60317612-.6072998 1.20634843-1.012146 1.70899583-.40484619.50264358-.91088867.90476226-1.51818847 1.20634841z"/>
      <path fill="rgb(255,255,255)" fill-rule="evenodd" d="M52.3267212 29.25396729c1.01208495-.40211487 1.82177734-1.1058197 2.63146972-1.91004944l-.60723877 1.91004944h6.57879639l2.22662353-11.56084443c.10125732-.40211868.10125732-.80423355.20245361-1.20635223.1011963-.40211487.1011963-.80422974.1011963-1.1058197 0-1.20634842-.30364991-2.31216812-.7084961-3.2169304-.4048462-.90476226-1.01208496-1.70899581-1.82177734-2.31216811-.7084961-.60317612-1.7206421-1.1058197-2.73272706-1.40740967-1.012146-.30158615-2.22668457-.50264359-3.44122314-.50264359-1.92303467 0-3.74487305.30158615-5.36425781.80423355-1.72058106.50264359-3.03637696 1.1058197-4.04846192 1.80952454l2.42907715 4.22222138c.80969238-.5026474 1.61938477-.80423356 2.42907715-1.1058197.91088867-.30158997 1.92303467-.40211869 3.13757324-.40211869 1.012146 0 1.82183838.20106125 2.42907715.60317612.7084961.30158615 1.012146.90476227 1.012146 1.70899582v.80423355c-.4048462-.10053253-1.012146-.20106125-1.51818848-.20106125-.50604248-.10052872-1.11334228-.10052872-1.82183838-.10052872-1.61938476 0-3.03631592.20105744-4.35211182.60317612-1.21453857.40211487-2.32788085 1.00529098-3.23876953 1.70899582-.91088867.70370102-1.51818847 1.50793457-2.02423095 2.51322555-.50604248 1.00529099-.7084961 2.01058197-.7084961 3.2169304 0 .90476226.20245362 1.70899581.50604248 2.41269683.3036499.70370483.80969239 1.30688095 1.3157959 1.80952454.60723877.60317611 1.21453858.90476227 1.92303467 1.20635223.70843506.30158615 1.51812744.40211487 2.32788086.40211487 1.11328125 0 2.12542725-.20105743 3.13757324-.70370483zm1.61932372-9.04761887c.91088867 0 1.51818848.10052872 2.02423096.20105743l-.20239258 1.40740967c-.10125732.6031723-.3036499 1.1058197-.6072998 1.50793457-.20245362.40211868-.6072998.70370484-.91088868.90476227-.40484619.30158615-.70849609.40211487-1.11334228.50264358-.4048462.10053254-.80969238.10053254-1.11334229.10053254-1.31573486 0-1.92303466-.70370484-1.92303466-2.01058197 0-.80423355.3036499-1.50793839 1.012146-1.91005326.60723876-.5026474 1.61938476-.70370483 2.83392333-.70370483z"/>
      <path fill="rgb(255,255,255)" fill-rule="evenodd" d="M81.37457275 8.44444275c-.80969238-.10052872-1.61938476-.20105744-2.32788086-.20105744-1.82183837 0-3.54241943.30158616-5.1618042.80423356-1.61938476.50264358-3.03637695 1.30687713-4.45336914 2.41269683-1.21453857 1.1058197-2.22662353 2.51322937-2.93511962 4.12169266-.7084961 1.6084671-1.11334229 3.51852036-1.11334229 5.73015976 0 1.30688095.20245361 2.51322556.50604248 3.51852036.4048462 1.00528717.9109497 1.91004944 1.51818848 2.61375427.6072998.80423355 1.41699219 1.30687714 2.22668457 1.70899582.80969238.40211868 1.72058105.60317612 2.73272705.60317612 1.21453857 0 2.22668457-.10053254 3.03637695-.30158997.80969238-.20105743 1.61938477-.70370483 2.42907715-1.30687714l-1.92303467 9.95237732h7.18603516l5.36425781-27.7460289c-.60723877-.40211487-1.31573486-.70370483-2.12542724-.90476227l-2.42913819-.6031723c-.80969238-.20106125-1.72058105-.30158996-2.53027344-.40211868zm-5.1618042 5.9312172c.60723877-.30158616 1.31573487-.40211488 2.02423096-.40211488.3036499 0 .7084961 0 1.31573486.10052872l1.21453858.30158615-1.01208496 5.3280449c-.20245361 1.20634841-.7084961 2.2116394-1.41699219 2.91534423-.7084961.70370102-1.51818848 1.1058197-2.53027344 1.1058197-1.012146 0-1.72064209-.40211868-2.22668457-1.00529098-.50604248-.70370483-.7084961-1.50793839-.7084961-2.61375809 0-1.00529098.1011963-1.80952453.4048462-2.61375427.3036499-.70370483.7084961-1.40740967 1.21453857-1.91005325.50604249-.5026474 1.11334229-.90476227 1.7206421-1.20635224z"/>
      <path fill="rgb(255,255,255)" fill-rule="evenodd" d="M108.2969697 29.25396825h-6.88242425l.20242425-2.1111111c-1.01212122 1.005291-2.12545455 1.8095238-3.13757576 2.1111111-1.01212121.4021164-2.12545455.5026455-3.34.5026455-.80969697 0-1.51818182-.1005291-2.22666667-.4021164-.70848485-.3015873-1.21454545-.7037037-1.72060606-1.2063492-.5060606-.5026455-.91090909-1.2063492-1.21454545-1.91005291-.30363637-.8042328-.40484849-1.60846561-.40484849-2.61375662v-1.1058201c0-.4021164.10121212-.7037037.10121212-1.2063492l2.53030303-12.76719578h7.18606061L97.16363636 19.9047619c-.10121212.4021164-.10121212.8042328-.10121212 1.10582011 0 .7037037.20242424 1.2063492.5060606 1.70899471.30363637.5026455.9109091.7037037 1.72060607.7037037 1.11333333 0 2.02424242-.4021164 2.63151515-1.1058201.60727273-.7037037 1.01212121-1.60846561 1.21454546-2.61375662l2.12545454-10.95767195h7.1860606l-4.14969696 20.5079365z"/>
      <path fill="rgb(255,255,255)" fill-rule="evenodd" d="M124.99700928 0h-7.79333496l-1.11334229 5.83068848h7.79333496L124.99700928 0zm-1.92303467 8.645504h-7.1860962l-4.0484619 20.60846329h7.18603515l4.04852295-20.6084633z"/>
      <path fill="rgb(255,255,255)" fill-rule="evenodd" d="M126.61636364 8.64550265h6.88242424l-.20242424 2.1111111c1.0121212-1.005291 2.12545454-1.8095238 3.13757575-2.1111111 1.01212122-.4021164 2.22666667-.5026455 3.44121213-.5026455.80969696 0 1.51818181.1005291 2.22666666.4021164.70848485.3015873 1.21454546.7037037 1.72060606 1.2063492.5060606.5026455.9109091 1.2063492 1.21454546 1.91005291.30363636.8042328.40484848 1.60846561.40484848 2.61375662v1.1058201c0 .4021164-.10121212.7037037-.10121212 1.2063492l-2.53030303 12.76719577h-7.1860606l2.12545454-11.25925925c.10121212-.4021164.10121212-.8042328.10121212-1.10582011 0-.7037037-.20242424-1.2063492-.5060606-1.70899471-.30363637-.4021164-.9109091-.7037037-1.72060607-.7037037-1.11333333 0-2.02424242.4021164-2.63151515 1.1058201-.60727272.7037037-1.0121212 1.60846561-1.21454545 2.61375662l-2.12545455 10.95767195h-7.1860606l4.14969697-20.6084656z"/>
      <path fill="rgb(255,255,255)" fill-rule="evenodd" d="M155.56304932 29.25396729c1.01208496-.40211487 1.82177734-1.1058197 2.63146972-1.91004944l-.30358886 1.91004944h6.27514648l2.22662354-11.56084443c.10125732-.40211868.10125732-.80423355.2024536-1.20635223.1011963-.40211487.1011963-.80422974.1011963-1.1058197 0-1.20634842-.3036499-2.31216812-.7084961-3.2169304-.40484619-.90476226-1.01208496-1.70899581-1.82177734-2.31216811-.7084961-.60317612-1.72064209-1.1058197-2.73272705-1.40740967-1.012146-.30158615-2.22668457-.50264359-3.44122315-.50264359-1.92303466 0-3.64367675.30158615-5.3642578.80423355-1.72058106.50264359-3.03637696 1.1058197-4.04846192 1.80952454l2.42907715 4.22222138c.80969238-.5026474 1.61938476-.80423356 2.42907715-1.1058197.91088867-.30158997 1.92303466-.40211869 3.13757324-.40211869 1.012146 0 1.82183838.20106125 2.42907715.60317612.70849609.30158615 1.012146.90476227 1.012146 1.70899582v.80423355c-.4048462-.10053253-1.012146-.20106125-1.51818848-.20106125-.50604249-.10052872-1.11334229-.10052872-1.82183838-.10052872-1.61938477 0-3.03631592.20105744-4.35211182.60317612-1.21453857.40211487-2.32788086 1.00529098-3.23876953 1.70899582-.91088867.70370102-1.51818848 1.50793457-2.02423096 2.51322555-.50604248 1.00529099-.7084961 2.01058197-.7084961 3.2169304 0 .90476226.20245362 1.70899581.50604249 2.41269683.3036499.70370483.80969238 1.30688095 1.3157959 1.80952454.60723877.60317611 1.21453857.90476227 1.92303466 1.20635223.70843506.30158615 1.51812745.40211487 2.32788086.40211487 1.11328125 0 2.12542725-.20105743 3.13757325-.70370483zm1.61938476-9.04761887c.91088867 0 1.51818848.10052872 2.02423096.20105743l-.20239258 1.40740967c-.10125732.6031723-.3036499 1.1058197-.6072998 1.50793457-.20245362.40211868-.6072998.70370484-.91088868.90476227-.40484619.30158615-.70849609.40211487-1.11334228.50264358-.4048462.10053254-.80969238.10053254-1.11334229.10053254-1.31573486 0-1.92303466-.70370484-1.92303466-2.01058197 0-.80423355.3036499-1.50793839 1.012146-1.91005326.60723876-.5026474 1.61938476-.70370483 2.83392333-.70370483z"/>
    </g>
  </g>
</svg>
