<svg xmlns="http://www.w3.org/2000/svg" xmlns:xlink="http://www.w3.org/1999/xlink" width="92" height="92" viewBox="0 0 92 92">
  <defs>
    <rect id="rect-2" width="47.896" height="52.32" x="22.052" y="19.84"/>
    <mask id="mask-3" maskContentUnits="userSpaceOnUse" maskUnits="userSpaceOnUse">
      <rect width="92" height="92" x="0" y="0" fill="black"/>
      <use fill="white" xlink:href="#rect-2"/>
    </mask>
  </defs>
  <g>
    <ellipse cx="46" cy="46" fill="rgb(7,193,158)" rx="46" ry="46"/>
    <g>
      <use fill="none" xlink:href="#rect-2"/>
      <g mask="url(#mask-3)">
        <path fill="rgb(255,255,255)" fill-rule="evenodd" d="M65.39219093 19.8401146h-21.0543766c-1.23125458 0-2.33937836.4901142-3.078125 1.34781646-.73875427.73517227-1.23125458 1.83793068-1.23125458 3.06321716v1.8379326c0 1.22528647.4925003 2.32804488 1.23125458 3.06321715.73874664.73517228 1.84687042 1.2252884 3.078125 1.2252884h4.30937195v2.20551681h-2.83187485c-.9849968 0-1.72375107.73517227-1.72375107 1.71540451v1.59287262H30.05531311c-2.21625137 0-4.18625069.85770035-5.6637516 2.3280449-1.47749901 1.47034453-2.33937454 3.4308052-2.33937454 5.63632201v9.92482758c0 .98022842.73875045 1.7154007 1.72374916 1.7154007h9.7268753c.98500061 0 1.72375107-.73517228 1.72375107-1.7154007v-5.1462059h8.86499786v.85770034c0 .98022843.73875428 1.71540451 1.72375107 1.71540451h18.09937859c.9850006 0 1.72374725-.73517608 1.72374725-1.7154045V34.29850768c0-.98023224-.73874664-1.71540451-1.72374725-1.71540451h-2.95500183v-2.3280449h4.43250274c1.23124695 0 2.33937073-.49011611 3.078125-1.22528838.73874665-.73517227 1.23124695-1.83793068 1.23124695-3.06321907v-1.83793068c0-1.22528649-.4925003-2.3280449-1.23124695-3.06321907-.73875427-.73517227-1.84687805-1.22528649-3.078125-1.22528649zm-15.02125358 8.08689689c-.4925003-.85770226-.73875046-1.7154026-.86187363-2.81816101 0-.98023033.24625015-1.96046066.73875046-2.81816101h-6.03312683c-.4925003 0-.98500061.24505806-1.35437393.6126442-.36937714.36758613-.49250031.85770034-.49250031 1.34781646v1.83793068c0 .49011421.24625015.98022842.61562347 1.34781647.36937714.36758423.86187745.49011421 1.35437775.49011421h6.03312302zm9.84999656-2.81816101c-.12312316-1.1027584-.3693695-1.96046066-.8618698-2.81816101h6.15625c.4925003 0 .9850006.24505806 1.23124694.6126442.36937714.36758613.6156311.85770034.6156311 1.34781646v1.7154007c0 .49011612-.1231308.98023033-.4925003 1.34781646-.36937714.36758614-.86187744.6126442-1.35437775.6126442h-6.15625c.61562348-.85770226.86186981-1.83793068.86186981-2.81816101zm-8.24937248 0c0-.73517227.36937332-1.47034645.86187363-1.96046066 1.1081276-1.10275841 2.95500374-1.10275841 3.94000435 0 .4925003.4901142.8618698 1.22528839.8618698 1.96046066 0 .73517227-.3693695 1.47034454-.8618698 1.96045875-1.10813141 1.10275841-2.83187676 1.10275841-3.94000435 0-.4925003-.4901142-.86187363-1.22528648-.86187363-1.96045875zM47.5390625 36.13643646h2.83187485c.9850006 0 1.72375107-.73517227 1.72375107-1.7154007v-2.69563293h5.41749763v2.69563294c0 .98022842.73875427 1.7154007 1.72375488 1.7154007h2.83187104v11.64022826H47.5390625V36.13643646zm-3.5706253 3.4308052H30.0553131c-1.23125076 0-2.33937645.49011613-3.20125008 1.34781648-.86187553.85770034-1.35437584 1.96046066-1.35437584 3.18574524v8.20942688h6.15625v-5.1462059c0-.98023225.73875046-1.71540452 1.72375107-1.71540452H43.9684372v-5.88137817zM25.37656211 71.42471314c1.72375107.85770417 4.0631256.98023224 5.78687477 0 .73875046-.4901123 1.35437775-1.10276031 1.72375107-1.83792877.4925003-.73517608.61562347-1.47034454.61562347-2.3280487 0-2.45057679-1.60062408-4.53356171-2.83187485-6.3714943-.4924984-.6126442-.9849987-1.34781646-1.35437393-2.08298874-.4925003-.85770034-1.60062408-.73517227-2.09312439 0-.36937523.73517228-.86187553 1.34781647-1.35437584 2.08298874-1.23125076 1.83793259-2.83187484 3.79838944-2.83187484 6.12643814-.12312508.85770417.12312507 1.7154007.4925003 2.45057679.36937523.85769653.9849987 1.47034454 1.84687424 1.96045684zm2.83187485-1.83792877c.73875045 0 1.23125076-.1225357 1.72374916-.36759186.36937713-.12252807.61562538-.36758422.73875045-.73516845.24625016-.36758423.24625016-.73517609.24625016-1.2252884 0-.612648-.12312508-1.34781646-.4925003-1.96045684-.61562348-.98023224-1.23124886-1.96046448-1.84687425-3.06322098l-.36937522-.49011612-.36937523.49011612c-.61562538.98022842-1.35437393 1.96046066-1.84687424 3.06322098-.24625015.61264038-.4925003 1.10275268-.4925003 1.7154007 0 .4901123.12312507.85769653.24625015 1.22528839.12312507.36758422.4925003.61264038.86187553.85769653.36937523.36758423.9849987.49011993 1.60062409.49011993z"/>
      </g>
    </g>
  </g>
</svg>
