<svg xmlns="http://www.w3.org/2000/svg" xmlns:xlink="http://www.w3.org/1999/xlink" width="92" height="92" viewBox="0 0 92 92">
  <defs>
    <rect id="rect-2" width="39.769" height="53.3" x="26.115" y="19.35"/>
    <mask id="mask-3" maskContentUnits="userSpaceOnUse" maskUnits="userSpaceOnUse">
      <rect width="92" height="92" x="0" y="0" fill="black"/>
      <use fill="white" xlink:href="#rect-2"/>
    </mask>
  </defs>
  <g>
    <ellipse cx="46" cy="46" fill="rgb(7,193,158)" rx="46" ry="46"/>
    <g>
      <use fill="none" xlink:href="#rect-2"/>
      <g mask="url(#mask-3)">
        <path fill="rgb(255,255,255)" fill-rule="evenodd" d="M56.1578125 31.48034483c-4.4325 5.02367816-4.67875 10.41494253-4.063125 14.21333333-3.816875-8.33195402 3.20125-13.96827586-8.988125-26.34367816 4.309375 10.04735632-11.57375 20.70735632-8.3725 33.20528736-1.846875-2.81816092-1.600625-4.41103449-2.093125-11.27264368-4.063125 6.12643678-6.279375 11.64022988-6.4025 15.43862069-.369375 8.45448276 5.4175 13.84574712 12.805 15.92873563-.73875-1.10275862-1.23125-2.57310345-1.23125-4.16597701-.24625-8.20942529 5.17125-7.2291954 6.525625-17.5216092 4.063125 7.10666667.861875 10.2924138 4.18625 13.96827587.615625-3.18574713 1.72375-6.12643679 3.69375-8.5770115-.24625 4.16597701 3.4475 6.24896552 2.831875 12.98804598-.123125 1.10275862-.369375 2.32804597-.861875 3.18574712 6.033125-2.0829885 10.958125-6.8616092 11.696875-13.84574712 1.354375-14.21333334-10.3425-18.37931035-9.726875-27.20137931z"/>
      </g>
    </g>
  </g>
</svg>
