<svg xmlns="http://www.w3.org/2000/svg" xmlns:xlink="http://www.w3.org/1999/xlink" width="92" height="92" viewBox="0 0 92 92">
  <defs>
    <rect id="rect-2" width="59.1" height="43.008" x="16.45" y="24.496"/>
    <mask id="mask-3" maskContentUnits="userSpaceOnUse" maskUnits="userSpaceOnUse">
      <rect width="92" height="92" x="0" y="0" fill="black"/>
      <use fill="white" xlink:href="#rect-2"/>
    </mask>
  </defs>
  <g>
    <ellipse cx="46" cy="46" fill="rgb(7,193,158)" rx="46" ry="46"/>
    <g>
      <use fill="none" xlink:href="#rect-2"/>
      <g mask="url(#mask-3)">
        <path fill="rgb(255,255,255)" fill-rule="evenodd" d="M74.93437195 37.97436523C67.66999817 29.39735603 57.20437622 24.49620628 46 24.49620628s-21.66999817 4.90114975-28.93437386 13.47815895c-.9850006 1.10276032-.86187553 2.81816102.36937523 3.79839325.4924984.36758423 1.10812378.61264038 1.72374916.61264038.73875046 0 1.47749901-.36758422 2.0931244-.9802246C27.40812682 34.05344772 36.51937484 29.88747025 46 29.88747025c9.60375214 0 18.59187317 4.16597747 24.74812317 11.517704.4925003.61264039 1.23125458.98022461 2.09312439.98022461.6156311 0 1.23125458-.24505615 1.72375488-.61264038 1.10812378-.98023223 1.35437012-2.69563293.3693695-3.79839325zm-49.61937142 6.86161042C30.48624993 38.8320694 37.99687576 35.2787361 46 35.2787361c8.00312424 0 15.51374817 3.43080521 20.68499756 9.55723954.86187744 1.10276031.73875427 2.818161-.3693695 3.79839325-.49250031.36758423-1.10813142.6126442-1.7237549.6126442-.73874663 0-1.60062408-.36758805-2.09312438-.98023225C58.43562317 43.3656311 52.40250015 40.5474701 46 40.5474701s-12.3125 2.81816101-16.49875069 7.71931076c-.61562538.6126442-1.35437393.98023224-2.09312439.98023224-.61562538 0-1.23125076-.24505997-1.72374916-.6126442-1.23125076-.98023223-1.35437584-2.69563293-.36937523-3.79839324zM46 45.93873596c-4.80187225 0-9.35749817 2.08298874-12.43562317 5.7588501-.9850006 1.10276031-.86187744 2.81816101.36937332 3.79839325.4925003.4901123 1.1081276.61264038 1.72375107.61264038.73875046 0 1.47750092-.36758423 2.09312439-.98022842C39.84375 52.6778183 42.79875183 51.33000183 46 51.33000183c3.20125198 0 6.15625 1.34781647 8.24937439 3.79838944.4925003.6126442 1.35437775.98022842 2.09312439.98022842.61562729 0 1.23125458-.24505615 1.72375488-.61264038 1.10812378-.98023224 1.23124695-2.69563294.36937332-3.79839325C55.234375 48.0217247 50.80187607 45.93873596 46 45.93873596zm0 10.78252983c-2.95499802 0-5.41749954 2.45056916-5.41749954 5.39126587 0 2.94068146 2.46250152 5.39125824 5.41749954 5.39125824 2.95500183 0 5.41749954-2.45057678 5.41749954-5.39125824 0-2.94069671-2.4624977-5.39126587-5.41749954-5.39126587z"/>
      </g>
    </g>
  </g>
</svg>
