<svg xmlns="http://www.w3.org/2000/svg" xmlns:xlink="http://www.w3.org/1999/xlink" width="92" height="92" viewBox="0 0 92 92">
  <defs>
    <rect id="rect-2" width="34.352" height="52.442" x="28.824" y="19.779"/>
    <mask id="mask-3" maskContentUnits="userSpaceOnUse" maskUnits="userSpaceOnUse">
      <rect width="92" height="92" x="0" y="0" fill="black"/>
      <use fill="white" xlink:href="#rect-2"/>
    </mask>
  </defs>
  <g>
    <ellipse cx="46" cy="46" fill="rgb(7,193,158)" rx="46" ry="46"/>
    <g>
      <use fill="none" xlink:href="#rect-2"/>
      <g mask="url(#mask-3)">
        <path fill="rgb(255,255,255)" fill-rule="evenodd" d="M59.8515625 25.04758644c-3.20124817-3.55333328-8.24937439-5.39126396-13.91312408-5.26873588-1.10812378 0-2.21625138 0-3.20125199.12252998-.9850006.12252808-1.9699974.36758613-2.95499801.61264229-5.04812623 1.47034645-8.98812676 4.6560936-10.46562577 9.8022995-.86187553 2.818161-.4925003 5.39126587.73875046 7.84183883 1.10812378 2.3280449 2.70874786 4.41103745 4.30937195 6.3714943.12312698 0 .12312698.12252807.12312698.12252807 1.47750092 1.83793259 2.33937454 3.5533371 2.95499802 5.39126587.4925003 1.83792687.73875427 3.92091942.73875427 6.49402428v.24505615c-.12312698 1.10276032-.12312698 3.18574524 2.46249771 3.18574524h10.71187592c2.47672653 0 2.46806335-1.91122437 2.46294021-3.04142761-.00022506-.04969025-.0004425-.0978775-.0004425-.14431763v-.36758423c-.12312317-2.45057678.12312698-4.53356933.73875427-6.3714962.61562348-1.83792877 1.60062409-3.55333328 3.078125-5.39126587 1.60062409-1.96045685 3.20124817-4.0434494 4.30937195-6.37149048 1.10812378-2.45057678 1.60062408-5.14620971.73874664-7.96437072v-.24505616c-.24624634-.98023223-.61562347-1.83793258-1.10812378-2.69563293-.4925003-.85770226-1.10812378-1.59287453-1.72374725-2.3280468zM46.06156158 22.9645977c-.9850006 0-1.97000122 0-2.83187484.12252999-.86187363.12252807-1.72375107.24505615-2.5856247.4901142-4.0631256 1.10275842-7.1412506 3.67586327-8.37250137 7.59678078-.61562348 1.96046067-.24625015 3.92092133.61562729 5.75885392.86187362 1.96045685 2.33937454 3.9209175 3.93999862 5.7588501 0 0 0 .12252807.12312699.12252807 1.72374725 2.08298493 2.83187485 4.16597748 3.57062149 6.37149048.73875427 2.20552063.9850006 4.53356743.9850006 7.35172844v.36758423h9.357502v-.36758423c0-2.81816101.24625015-5.14620781.98499679-7.35172844.73875427-2.205513 1.84687805-4.28850555 3.5706253-6.49401856 1.47750092-1.83793258 2.95500183-3.79839324 3.94000244-5.7588501.86187745-1.83793258 1.23125077-3.67586517.61562348-5.7588539v-.24505616c-.24624634-.73517227-.4925003-1.47034454-.86187363-2.08298874-.73875046-.49011612-1.1081276-1.1027584-1.60062408-1.7154026-2.58562851-2.81816101-6.7718773-4.28850555-11.45062638-4.16597748zm-6.52562332 41.65976715c-.86187362 0-1.60062408-.73516845-1.60062408-1.59287262 0-.85769653.73875046-1.59287262 1.60062408-1.59287262h12.9281273c.86187362 0 1.60062408.73517609 1.60062408 1.59287262 0 .85770417-.73875046 1.59287262-1.60062409 1.59287262H39.53593826zm-1.60062408 2.20552063c0 .85770417.73875046 1.59287262 1.60062408 1.59287262h12.9281273c.86187362 0 1.60062408-.73516845 1.60062408-1.59287262 0-.85769653-.73875046-1.59287262-1.60062409-1.59287262H39.53593826c-.86187362 0-1.60062408.73517609-1.60062408 1.59287262zm5.0481224 5.39125824c-.86187362 0-1.60062408-.73516845-1.60062408-1.59287262 0-.85769653.73875046-1.59287262 1.60062408-1.59287262h6.03312684c.86187362 0 1.60062408.73517609 1.60062408 1.59287262 0 .85770417-.73875046 1.59287262-1.60062408 1.59287262h-6.03312684z"/>
      </g>
    </g>
  </g>
</svg>
