<svg xmlns="http://www.w3.org/2000/svg" xmlns:xlink="http://www.w3.org/1999/xlink" width="92" height="92" viewBox="0 0 92 92">
  <defs>
    <rect id="rect-2" width="44.818" height="52.442" x="23.591" y="19.779"/>
    <mask id="mask-3" maskContentUnits="userSpaceOnUse" maskUnits="userSpaceOnUse">
      <rect width="92" height="92" x="0" y="0" fill="black"/>
      <use fill="white" xlink:href="#rect-2"/>
    </mask>
  </defs>
  <g>
    <ellipse cx="46" cy="46" fill="rgb(7,193,158)" rx="46" ry="46"/>
    <g>
      <use fill="none" xlink:href="#rect-2"/>
      <g mask="url(#mask-3)">
        <path fill="rgb(255,255,255)" fill-rule="evenodd" d="M53.14125061 19.90137863c-.61562347-.12252807-1.35437775-.12252807-2.09312439-.12252807-4.80187607 0-9.11125183 1.96046066-12.06625366 5.02367782-3.078125 3.18574715-5.0481224 7.47425461-5.0481224 12.25287628 0 2.32804108.4925003 4.53356171 1.35437392 6.61654663.12312317.49011994.24625016.85770417.49250031 1.2252884v.12252807L25.06874847 60.33586121c-1.23124885 1.7154045-1.60062408 3.67585754-1.23124885 5.63632202.36937523 1.96046448 1.35437393 3.67585754 3.078125 4.90115356 2.46249962 1.7154007 5.6637516 1.7154007 8.12624931.36758423.4925003-.36758423.86187363-.61264038 1.60062409-1.10276031.36937713-.36758423.73875045-.7351761 1.10812759-1.2252884L48.09312439 54.086895c.12312317.12253189.36937714.12253189.4925003.12253189h.36937714c.73874664.12252808 1.4774971.12252808 2.21624756.12252808 4.80187798 0 9.2343731-1.8379326 12.3124981-5.02368164 3.078125-3.18574524 5.04812621-7.4742508 5.04812621-12.25286866 0-2.45057678-.4925003-4.77862167-1.47750091-6.86161041-.24625397-.36758804-.36937714-.85770225-.61562348-1.2252884-.24624633-.24505805-.36937713-.61264419-.6156311-.98023032-.12312317-.24505806-.3693695-.49011421-.61561584-.61264229-.86187745-.6126442-1.97000123-.36758804-2.5856247.49011421l-5.54062653 7.84184075c-.61562347.85769653-1.60062599 1.47034454-2.5856266 1.59287262-.86187362.12252807-1.9699974 0-2.83187485-.6126442h-.12312316c-1.23125458-.98022842-1.84687806-2.45057297-1.6006279-3.92092133.12312698-.24505615.12312698-.4901123.24625015-.73517227v-.12252807l.36937714-.73517228.12312316-.12252807 5.54062462-7.96436882c.12312317-.12252808.24625397-.36758614.24625397-.61264229.24624634-.98023033-.36937714-1.96046066-1.35437584-2.20551872-.4925003-.24505615-1.1081276-.24505615-1.6006279-.36758614h-.36937332zm-11.69687653 7.59678269c2.46250153-2.57310486 5.78687287-4.0434494 9.60375214-4.0434494h.36937332l-3.69375229 5.51379394c-.12312317 0-.12312317.12252808-.12312317.12252808-.36937713.4901142-.61562347.98023033-.73874664 1.47034454v.12252808l-.36937713 1.47034454c-.49250031 2.818161.73874664 5.7588501 3.20124816 7.4742546 0 .12252808.12312699.12252808.12312699.12252808 1.60062408 1.1027565 3.69374847 1.47034455 5.5406227 1.1027565 1.96999932-.36758423 3.6937542-1.47034454 4.92500115-3.18574524l3.69374848-5.26873779c.61562347 1.34781647.86187744 2.9406929.86187744 4.6560936 0 3.79838943-1.60062409 7.22919845-4.06312561 9.67977142-2.46250153 2.57310105-5.78687477 4.04344559-9.60375023 4.04344559-.61562347 0-1.23124695 0-1.84687424-.12252808H49.078125c-.4925003 0-.98500061-.12252807-1.47750092-.24505615-.73874664-.24505615-1.60062408.12252808-1.97000122.73517227L34.54937363 66.95240784c-.24625016.24506378-.36937332.49011993-.61562348.612648-.24625015.12252808-.4925003.36759187-.73875046.49011994-1.23125076.61264038-2.95499992.61264038-4.18625068-.24505615-.86187363-.61264801-1.47749901-1.59288025-1.60062409-2.57310486-.24625015-.98023224 0-2.08299255.61562539-2.9406929l11.32749938-16.05126572c.36937714-.61264038.36937714-1.47034454 0-2.08298874-.24625015-.36758804-.36937713-.6126442-.4925003-.85770034-.12312317-.36758423-.24625015-.6126442-.36937332-.98023224-.73875046-1.7154007-1.1081276-3.4308014-1.1081276-5.26873398 0-3.67586136 1.60062409-7.10666657 4.06312561-9.55723953z"/>
      </g>
    </g>
  </g>
</svg>
