<svg xmlns="http://www.w3.org/2000/svg" xmlns:xlink="http://www.w3.org/1999/xlink" width="92" height="92" viewBox="0 0 92 92">
  <defs>
    <rect id="rect-2" width="60" height="72" x="18" y="11"/>
    <mask id="mask-3" maskContentUnits="userSpaceOnUse" maskUnits="userSpaceOnUse">
      <rect width="92" height="92" x="0" y="0" fill="black"/>
      <use fill="white" xlink:href="#rect-2"/>
    </mask>
    <path id="path-4" fill-rule="evenodd" d="M56.82092285 75.9999981h.25312233c2.49504852 0 5.35169983-1.6031952 6.56306458-2.30344392 1.77184295-.99507904 2.82048797-2.15601348 3.20017242-3.55651092.34352112-1.271492.10848236-2.63513184-.72320557-4.07247925-.48815918-.84766388-4.86353302-8.34766388-7.79251098-10.4484024-3.3738842-2.42733765-5.32542992-.6524353-6.50142098.41710662l-.0074005.00672913c-.77744294.70024109-1.04864503.88452148-1.42832948.79238129-1.5368042-.38697815-4.44769287-3.88820649-7.06930542-8.51351166-2.35041046-4.14619255-4.46577453-9.25061607-3.97761535-11.00122643.10848236-.38697815.3977623-.53440094 1.39216613-.8660965l.00829316-.0027809c1.48355484-.49786378 3.96865081-1.33182526 3.60771942-5.52547456-.32543946-3.6302204-4.52001572-11.2407856-4.99009705-12.10687828-.7955246-1.4373474-1.84416962-2.34029579-3.09169388-2.69041824-1.39216232-.3685503-2.89281082-.0184269-4.62849617 1.05036926-1.24752426.7739544-4.1764965 2.57985115-5.35169983 4.90172005-1.9345684 3.7960682-1.68144798 9.49017143.75936318 16.97174454 2.13344765 6.54176712 5.27937698 12.45699882 6.5449829 14.68672752 1.26560594 2.2297287 4.70081712 7.96069336 9.20275498 13.12039185 5.11666107 5.87837982 9.83555603 8.95578003 14.03013611 9.1400528zm-12.0051651-10.98280335c-4.32114029-4.97542572-7.64787292-10.52210999-8.87731552-12.6781311-1.21136475-2.17444611-4.2668972-7.86854745-6.32802582-14.1707592-2.16960716-6.61547852-2.47696876-11.73832894-.9220829-14.79729653.8316822-1.64004898 3.39905357-3.22481537 4.3572979-3.7776413 1.0486412-.66339111 1.89840698-.90294838 2.53120804-.7371006.5243225.12899208.99440384.58967972 1.42832565 1.36363602 1.75376892 3.15110588 4.44769669 8.67936134 4.64657593 10.98280144.16244125 2.0234928-.39580536 2.2106533-1.76466751 2.66958427l-.00717545.00240707c-1.1028862.36854935-2.62161255.88452149-3.14593506 2.72727204-.97632217 3.42751694 2.6396904 10.33783722 4.23073578 13.15724754 1.5006485 2.65356445 5.38786316 8.9557724 8.76883698 9.80343628 1.82608413.46069336 3.01937103-.6265335 3.88721466-1.4189148l.01806259-.01626586c1.0716095-.96485901 1.50971985-1.35932923 3.12786484-.2048645 1.86225319 1.32678222 5.20706367 6.44963073 7.01506996 9.5823059.43392181.75553131.59664154 1.4189148.45200348 1.93489075-.16271973.62654114-.7955246 1.25306702-1.88032532 1.86117554-.99440765.55282592-3.6160202 2.00860595-5.42402458 1.93489074-3.38097382-.16584777-7.57555008-3.00367736-12.11364365-8.2186737z"/>
    <mask id="mask-5" x="0" y="0" maskContentUnits="userSpaceOnUse" maskUnits="userSpaceOnUse">
      <rect width="92" height="92" x="0" y="0" fill="white"/>
      <use fill="black" xlink:href="#path-4"/>
    </mask>
  </defs>
  <g>
    <ellipse cx="46" cy="46" fill="rgb(7,193,158)" rx="46" ry="46"/>
    <g>
      <use fill="none" xlink:href="#rect-2"/>
      <g mask="url(#mask-3)">
        <use fill="rgb(255,255,255)" xlink:href="#path-4"/>
        <use fill-opacity="0" stroke="rgb(255,255,255)" stroke-linecap="butt" stroke-linejoin="miter" stroke-width="1" mask="url(#mask-5)" xlink:href="#path-4"/>
      </g>
    </g>
  </g>
</svg>
