<svg xmlns="http://www.w3.org/2000/svg" xmlns:xlink="http://www.w3.org/1999/xlink" width="92" height="92" viewBox="0 0 92 92">
  <defs>
    <rect id="rect-2" width="50.604" height="43.008" x="20.698" y="24.496"/>
    <mask id="mask-3" maskContentUnits="userSpaceOnUse" maskUnits="userSpaceOnUse">
      <rect width="92" height="92" x="0" y="0" fill="black"/>
      <use fill="white" xlink:href="#rect-2"/>
    </mask>
  </defs>
  <g>
    <ellipse cx="46" cy="46" fill="rgb(7,193,158)" rx="46" ry="46"/>
    <g>
      <use fill="none" xlink:href="#rect-2"/>
      <g mask="url(#mask-3)">
        <path fill="rgb(255,255,255)" fill-rule="evenodd" d="M20.69781303 26.33413696c0-.98023033.86187554-1.83793068 1.84687424-1.83793068h46.91062546c.9850006 0 1.84687042.85770035 1.84687042 1.83793068v30.5096569c0 .98022462-.86186981 1.83792878-1.84687042 1.83792878H54.92655754v5.2687378h3.078125c.98500061 0 1.84687805.85769653 1.84687805 1.83792877 0 .98023223-.86187744 1.83792877-1.84687805 1.83792877H34.2415619c-.98500061 0-1.84687424-.85769654-1.84687424-1.83792877 0-.98023224.86187363-1.83792878 1.84687424-1.83792878h2.46250153v-5.26873779H22.54468727c-.9849987 0-1.84687424-.85770416-1.84687424-1.83792877v-30.5096569zm30.65812493 37.61632347v-5.26873779H40.27468872v5.2687378h11.08124924z"/>
        <path fill="rgb(7,193,158)" fill-rule="evenodd" d="M67.85469055 28.17206955H24.39156342v26.95632172h43.46312713V28.17206955zM28.5778141 30.62264442h34.72125054c.73874664 0 1.35437774.6126442 1.35437774 1.34781647v19.23701286c0 .73516846-.6156311 1.34781647-1.35437774 1.34781647H28.5778141c-.73875046 0-1.35437584-.612648-1.35437584-1.34781647V31.9704609c.12312508-.73517227.61562538-1.34781647 1.35437584-1.34781647zm1.35437393 2.57310296h32.13562203v16.6639099H29.93218803v-16.6639099z"/>
      </g>
    </g>
  </g>
</svg>
